<svg width="336" height="51" viewBox="0 0 336 51" fill="none" xmlns="http://www.w3.org/2000/svg">
<path d="M1.59375 49.4688C1.19792 49.4271 0.895833 49.25 0.6875 48.9375C0.479167 48.625 0.395833 48.2812 0.4375 47.9062C0.541667 47.2604 0.739583 46.6667 1.03125 46.125C1.32292 45.5833 1.53125 45.1771 1.65625 44.9062C1.80208 44.6354 1.94792 44.3333 2.09375 44L3.28125 41.25L16.125 2.78125L29.9375 29.4688L43.3438 2.78125L59.375 49H42.5938L34.8438 25.125L22.8438 50.125L10.2188 27.625L5.84375 41.2812C5.15625 42.8021 4.66667 44.0938 4.375 45.1562C4.08333 46.2188 3.84375 47.0417 3.65625 47.625C3.23958 48.9375 2.55208 49.5521 1.59375 49.4688ZM62.6562 32.125C62.6562 29.625 63.1042 27.3542 64 25.3125C64.9167 23.25 66.1667 21.4583 67.75 19.9375C71.1667 16.6875 75.4583 15.0625 80.625 15.0625C85.8958 15.0625 90.1875 16.75 93.5 20.125C96.6667 23.3125 98.25 27.3438 98.25 32.2188C98.25 37.1146 96.625 41.2083 93.375 44.5C90.0208 47.8958 85.7292 49.5938 80.5 49.5938C75.3958 49.5938 71.1667 47.9792 67.8125 44.75C64.375 41.4167 62.6562 37.2083 62.6562 32.125ZM79.625 47.25C79.7917 47.2708 79.9583 47.2812 80.125 47.2812H80.5625C84.7708 47.2812 88.3021 45.9792 91.1562 43.375C94.1979 40.5625 95.7188 36.875 95.7188 32.3125C95.7188 27.8542 94.2917 24.2396 91.4375 21.4688C88.625 18.7188 84.9896 17.3438 80.5312 17.3438H80.0625C79.9167 17.3438 79.7708 17.3542 79.625 17.375V47.25ZM101 15.625H115.156L123.656 33.1562L129 22.5312C130.104 20.2604 130.792 18.5729 131.062 17.4688C131.354 16.3646 131.635 15.6875 131.906 15.4375C132.198 15.1875 132.542 15.0625 132.938 15.0625C133.354 15.0625 133.677 15.1979 133.906 15.4688C134.135 15.7396 134.25 16.0104 134.25 16.2812C134.25 16.5521 134.219 16.8229 134.156 17.0938C134.115 17.3646 134.021 17.7292 133.875 18.1875C133.562 19.0417 132.906 20.5208 131.906 22.625L118.156 50.4062L101 15.625ZM146.281 10.1562C144.135 10.1562 142.458 9.67708 141.25 8.71875C140.042 7.76042 139.438 6.5 139.438 4.9375C139.438 3.625 140.104 2.5 141.438 1.5625C142.854 0.5625 144.354 0.0625 145.938 0.0625C147.521 0.0625 148.74 0.21875 149.594 0.53125C150.469 0.84375 151.208 1.25 151.812 1.75C153.021 2.77083 153.625 3.95833 153.625 5.3125C153.625 6.66667 152.938 7.8125 151.562 8.75C150.188 9.6875 148.427 10.1562 146.281 10.1562ZM139.719 15.625H153.156V49H139.719V15.625ZM192.406 41.4062C193.219 41.4062 193.625 41.7812 193.625 42.5312C193.625 43.0938 193.26 43.7604 192.531 44.5312C189.24 47.9062 184.729 49.5938 179 49.5938C173.854 49.5938 169.521 48.0417 166 44.9375C162.354 41.7083 160.531 37.625 160.531 32.6875C160.531 27.6458 162.177 23.5 165.469 20.25C168.948 16.7917 173.573 15.0625 179.344 15.0625C183.969 15.0625 187.854 16.4688 191 19.2812C194.396 22.3021 196.094 26.2708 196.094 31.1875C196.094 31.8958 196.073 32.6458 196.031 33.4375H175.406V46.8438C176.823 47.1354 178.417 47.2812 180.188 47.2812C183.938 47.2812 187.135 46.0417 189.781 43.5625C190.323 43.0208 190.708 42.5938 190.938 42.2812C191.417 41.6979 191.906 41.4062 192.406 41.4062ZM184.062 17.9375C182.708 17.5417 181.177 17.3438 179.469 17.3438C177.76 17.3438 176.406 17.4583 175.406 17.6875V31.1562H184.062V17.9375ZM238.25 44.4688L238.344 47.6562C238.344 48.1979 238.188 48.6146 237.875 48.9062C237.562 49.1979 237.198 49.3438 236.781 49.3438C236.385 49.3438 236.062 49.2083 235.812 48.9375C235.583 48.6667 235.469 48.3229 235.469 47.9062C235.469 47.4896 235.521 47.0208 235.625 46.5C235.771 45.8542 235.844 44.2396 235.844 41.6562V18.8438H220.125V49H204.156V4.78125H220.125V16.5625C224.625 16.5625 228.208 16.5625 230.875 16.5625C233.562 16.5625 235.219 16.5521 235.844 16.5312V11.0938C235.844 9.28125 235.812 8.10417 235.75 7.5625L235.625 6.625C235.604 6.33333 235.594 6.08333 235.594 5.875C235.594 4.91667 236.031 4.4375 236.906 4.4375C237.219 4.4375 237.542 4.5625 237.875 4.8125C238.208 5.0625 238.375 5.47917 238.375 6.0625L238.25 10.0625V16.4062L240.219 16.125C240.594 16.125 240.906 16.2396 241.156 16.4688C241.406 16.6771 241.531 16.9583 241.531 17.3125C241.531 18.125 240.885 18.5833 239.594 18.6875C239.365 18.7292 239.135 18.7604 238.906 18.7812C238.698 18.7812 238.479 18.7917 238.25 18.8125V44.4688ZM260.656 49.5938C253.344 49.5938 249.688 46.0208 249.688 38.875V15.625H263.062V46.2188C263.271 46.3229 263.531 46.375 263.844 46.375H264.875C266.542 46.375 268.521 45.25 270.812 43C271.5 42.3125 272.146 41.5625 272.75 40.75V15.625H286.188V49H272.75V44.1875C269.354 47.7917 265.323 49.5938 260.656 49.5938ZM317.656 49.5938C314.76 49.5938 311.958 48.9375 309.25 47.625V49H296.406V4.78125H309.25V17.2188C311.896 15.7812 314.667 15.0625 317.562 15.0625C320.458 15.0625 323 15.4896 325.188 16.3438C327.375 17.1979 329.25 18.375 330.812 19.875C334.042 23.0417 335.656 27.0938 335.656 32.0312C335.656 37.0104 334.062 41.1458 330.875 44.4375C327.583 47.875 323.177 49.5938 317.656 49.5938ZM317.562 17.3438C314.479 17.3438 311.708 18.1979 309.25 19.9062V44.9688C311.979 46.5104 315.042 47.2812 318.438 47.2812H319.25C319.5 47.2812 319.74 47.2604 319.969 47.2188V17.5312C319.177 17.4062 318.375 17.3438 317.562 17.3438Z" fill="#E96900"/>
</svg>
