<svg width="12" height="10" viewBox="0 0 12 10" fill="none" xmlns="http://www.w3.org/2000/svg">
<path d="M0.298828 9.08789C0.224609 9.08008 0.167969 9.04688 0.128906 8.98828C0.0898438 8.92969 0.0742188 8.86523 0.0820312 8.79492C0.101562 8.67383 0.138672 8.5625 0.193359 8.46094C0.248047 8.35938 0.287109 8.2832 0.310547 8.23242C0.337891 8.18164 0.365234 8.125 0.392578 8.0625L0.615234 7.54688L3.02344 0.333984L5.61328 5.33789L8.12695 0.333984L11.1328 9H7.98633L6.5332 4.52344L4.2832 9.21094L1.91602 4.99219L1.0957 7.55273C0.966797 7.83789 0.875 8.08008 0.820312 8.2793C0.765625 8.47852 0.720703 8.63281 0.685547 8.74219C0.607422 8.98828 0.478516 9.10352 0.298828 9.08789Z" fill="black"/>
</svg>
